<?xml version="1.0" encoding="utf-8"?>
<!-- Generator: Adobe Illustrator 16.0.0, SVG Export Plug-In . SVG Version: 6.00 Build 0)  -->
<!DOCTYPE svg PUBLIC "-//W3C//DTD SVG 1.1//EN" "http://www.w3.org/Graphics/SVG/1.1/DTD/svg11.dtd">
<svg version="1.1" xmlns="http://www.w3.org/2000/svg" xmlns:xlink="http://www.w3.org/1999/xlink" x="0px" y="0px"
	 width="63.315px" height="63.316px" viewBox="0 0 63.315 63.316" enable-background="new 0 0 63.315 63.316" xml:space="preserve">
<g id="圖層_2">
</g>
<g id="圖層_1">
	<g>
		<path fill="#323333" d="M54.694,22.845c-0.033-0.674-0.569-1.195-1.231-1.245l-1.054-5.863c-0.114-0.633-0.664-1.093-1.307-1.093
			H13.926c-0.649,0-1.203,0.469-1.31,1.109l-0.977,5.84c-0.681,0.03-1.236,0.564-1.27,1.252L8.476,61.633
			c-0.018,0.363,0.114,0.718,0.365,0.981c0.251,0.263,0.599,0.412,0.962,0.412h45.459c0.363,0,0.711-0.149,0.962-0.412
			c0.25-0.263,0.382-0.618,0.365-0.981L54.694,22.845z M15.051,17.301h34.94l0.77,4.281H14.335L15.051,17.301z M11.197,60.37
			l1.765-36.131h0.662h37.78h0.699l1.764,36.131H11.197z"/>
		<circle fill="#323333" cx="24.678" cy="44.353" r="1.666"/>
		<circle fill="#323333" cx="40.87" cy="44.353" r="1.666"/>
		<path fill="#323333" d="M38.644,50.674c-3.322-0.075-5.55,1.915-5.642,2c-0.507,0.468-0.539,1.259-0.07,1.766
			c0.246,0.267,0.582,0.402,0.918,0.402c0.303,0,0.607-0.11,0.848-0.332c0.015-0.014,1.538-1.39,3.889-1.337
			c0.68,0.046,1.263-0.531,1.278-1.221C39.881,51.262,39.334,50.689,38.644,50.674z"/>
		<path fill="#323333" d="M11.779,14.841c0.39,0,0.773-0.182,1.018-0.522c0.402-0.562,0.272-1.342-0.289-1.744L8.382,9.621
			C7.82,9.218,7.04,9.349,6.638,9.91s-0.272,1.342,0.289,1.744l4.126,2.954C11.273,14.766,11.527,14.841,11.779,14.841z"/>
		<path fill="#323333" d="M30.171,10.491c0.123,0.038,0.248,0.056,0.37,0.056c0.533,0,1.028-0.345,1.194-0.881l1.5-4.848
			c0.204-0.66-0.165-1.359-0.825-1.564c-0.659-0.203-1.359,0.166-1.564,0.825l-1.5,4.848C29.142,9.586,29.511,10.286,30.171,10.491z
			"/>
		<path fill="#323333" d="M19.284,10.453c0.121,0.592,0.642,1.001,1.224,1.001c0.083,0,0.167-0.008,0.25-0.025
			c0.676-0.138,1.113-0.797,0.976-1.474l-1.514-7.45c-0.137-0.676-0.796-1.114-1.474-0.976c-0.676,0.138-1.113,0.797-0.976,1.474
			L19.284,10.453z"/>
		<path fill="#323333" d="M42.268,27.779c0-0.733-0.595-1.328-1.328-1.328s-1.328,0.595-1.328,1.328c0,3.393-3.176,6.153-7.08,6.153
			s-7.08-2.76-7.08-6.153c0-0.733-0.595-1.328-1.328-1.328s-1.328,0.595-1.328,1.328c0,4.857,4.367,8.809,9.736,8.809
			S42.268,32.636,42.268,27.779z"/>
	</g>
</g>
</svg>
