<?xml version="1.0" encoding="utf-8"?>
<!-- Generator: Adobe Illustrator 16.0.0, SVG Export Plug-In . SVG Version: 6.00 Build 0)  -->
<!DOCTYPE svg PUBLIC "-//W3C//DTD SVG 1.1//EN" "http://www.w3.org/Graphics/SVG/1.1/DTD/svg11.dtd">
<svg version="1.1" xmlns="http://www.w3.org/2000/svg" xmlns:xlink="http://www.w3.org/1999/xlink" x="0px" y="0px"
	 width="63.315px" height="63.316px" viewBox="0 0 63.315 63.316" enable-background="new 0 0 63.315 63.316" xml:space="preserve">
<g id="圖層_2">
</g>
<g id="圖層_1">
	<g>
		<path fill="#323333" d="M6.187,14.608c0.22,0.158,0.475,0.233,0.727,0.233c0.39,0,0.773-0.182,1.018-0.522
			c0.402-0.562,0.272-1.342-0.289-1.744L3.516,9.621C2.955,9.218,2.173,9.349,1.772,9.91C1.37,10.472,1.5,11.252,2.061,11.654
			L6.187,14.608z"/>
		<path fill="#323333" d="M25.305,10.491c0.123,0.038,0.248,0.056,0.37,0.056c0.533,0,1.028-0.345,1.194-0.881l1.5-4.848
			c0.204-0.66-0.165-1.359-0.825-1.564c-0.657-0.203-1.36,0.166-1.564,0.825l-1.5,4.848C24.276,9.586,24.646,10.286,25.305,10.491z"
			/>
		<path fill="#323333" d="M14.418,10.453c0.121,0.592,0.642,1.001,1.224,1.001c0.083,0,0.167-0.008,0.25-0.025
			c0.676-0.138,1.113-0.797,0.976-1.474l-1.514-7.45c-0.138-0.676-0.798-1.114-1.474-0.976c-0.676,0.138-1.113,0.797-0.976,1.474
			L14.418,10.453z"/>
		<path fill="#323333" d="M62.196,44.048c0-0.086-0.033-0.161-0.051-0.242c-0.015-0.07-0.01-0.141-0.038-0.209l-0.012-0.031
			c0,0,0-0.001-0.001-0.001L50.563,14.507c-0.018-0.044-0.053-0.074-0.075-0.115c-0.178-0.451-0.611-0.771-1.124-0.771H38.904
			c-0.024,0-0.044,0.012-0.067,0.014c-0.023-0.001-0.043-0.014-0.067-0.014c-0.671,0-1.215,0.544-1.215,1.215v2.568H26.492v-2.568
			c0-0.671-0.544-1.215-1.215-1.215c-0.029,0-0.053,0.015-0.081,0.017c-0.028-0.002-0.053-0.017-0.082-0.017H14.684
			c-0.169,0-0.329,0.035-0.475,0.098c-0.489,0.011-0.946,0.31-1.136,0.793L1.652,43.601c-0.028,0.072-0.024,0.146-0.039,0.219
			c-0.016,0.077-0.047,0.147-0.048,0.228L1.442,59.624c-0.002,0.333,0.128,0.653,0.363,0.89c0.234,0.236,0.554,0.37,0.887,0.37
			h58.377c0.333,0,0.653-0.133,0.887-0.37c0.235-0.236,0.365-0.557,0.363-0.89L62.196,44.048z M59.105,42.808h-2.487l-5.969-17.776
			l-0.025-3.594L59.105,42.808z M15.891,16.05h8.172v2.568c0,0.671,0.544,1.215,1.215,1.215H38.77c0.671,0,1.215-0.544,1.215-1.215
			V16.05h8.172l0.057,8.083H15.979c-0.046-0.065-0.086-0.135-0.145-0.19L15.891,16.05z M15.721,26.563h32.805l5.455,16.246H43.416
			c-0.04,0-0.074,0.019-0.113,0.023c-0.04-0.004-0.073-0.023-0.114-0.023c-0.69,0-1.25,0.56-1.25,1.25v4.354H21.822v-4.354
			c0-0.69-0.56-1.25-1.25-1.25c-0.048,0-0.089,0.022-0.136,0.027c-0.047-0.005-0.088-0.027-0.136-0.027H10.221L15.721,26.563z
			 M13.43,20.444l-0.034,4.896c0,0.065,0.026,0.125,0.036,0.188l-5.851,17.28H4.649L13.43,20.444z M3.952,58.383l0.104-13.075
			h15.266v4.354c0,0.69,0.56,1.25,1.25,1.25h22.617c0.69,0,1.25-0.56,1.25-1.25v-4.354h15.267l0.103,13.075H3.952z"/>
		<ellipse fill="#323333" cx="22.488" cy="34.044" rx="2.323" ry="1.63"/>
		<ellipse fill="#323333" cx="39.78" cy="34.044" rx="2.322" ry="1.63"/>
		<path fill="#323333" d="M32.576,42.416c0.241,0,0.483-0.075,0.689-0.23c0.017-0.012,1.63-1.227,4.067-1.162
			c0.615-0.032,1.154-0.491,1.167-1.124c0.012-0.632-0.491-1.154-1.124-1.167c-3.253-0.047-5.411,1.564-5.501,1.633
			c-0.499,0.384-0.591,1.097-0.21,1.598C31.889,42.261,32.23,42.416,32.576,42.416z"/>
	</g>
</g>
</svg>
