<?xml version="1.0" encoding="utf-8"?>
<!-- Generator: Adobe Illustrator 16.0.0, SVG Export Plug-In . SVG Version: 6.00 Build 0)  -->
<!DOCTYPE svg PUBLIC "-//W3C//DTD SVG 1.1//EN" "http://www.w3.org/Graphics/SVG/1.1/DTD/svg11.dtd">
<svg version="1.1" xmlns="http://www.w3.org/2000/svg" xmlns:xlink="http://www.w3.org/1999/xlink" x="0px" y="0px"
	 width="63.315px" height="63.316px" viewBox="0 0 63.315 63.316" enable-background="new 0 0 63.315 63.316" xml:space="preserve">
<g id="圖層_2">
</g>
<g id="圖層_1">
	<g>
		<path fill="#FFFFFF" d="M61.074,50.96L45.183,37.486c-0.742-0.63-1.784-0.771-2.667-0.362c-0.884,0.41-1.449,1.295-1.449,2.269
			l0.003,20.833c0,1.013,0.611,1.925,1.547,2.311c0.308,0.127,0.631,0.188,0.952,0.188c0.653,0,1.295-0.256,1.774-0.738l4.048-4.076
			l1.037,2.237c0.423,0.913,1.326,1.45,2.27,1.45c0.352,0,0.709-0.075,1.049-0.232c1.253-0.581,1.798-2.067,1.218-3.319
			l-1.036-2.236l5.726-0.453c1.01-0.08,1.871-0.761,2.182-1.724C62.148,52.671,61.847,51.615,61.074,50.96z M46.067,44.791
			l7.148,6.061l-3.264,0.258c-0.596,0.047-1.156,0.306-1.577,0.73l-2.306,2.322L46.067,44.791z"/>
		<path fill="#FFFFFF" d="M21.988,12.723h37.469c1.381,0,2.5-1.119,2.5-2.5s-1.119-2.5-2.5-2.5H21.988c-1.381,0-2.5,1.119-2.5,2.5
			S20.607,12.723,21.988,12.723z"/>
		<path fill="#FFFFFF" d="M13.988,3.218H4.979c-1.381,0-2.5,1.119-2.5,2.5v9.009c0,1.381,1.119,2.5,2.5,2.5h9.009
			c1.381,0,2.5-1.119,2.5-2.5V5.718C16.488,4.337,15.369,3.218,13.988,3.218z M11.488,12.227H7.479V8.218h4.009V12.227z"/>
		<path fill="#FFFFFF" d="M59.458,28.848H21.988c-1.381,0-2.5,1.119-2.5,2.5s1.119,2.5,2.5,2.5h37.469c1.381,0,2.5-1.119,2.5-2.5
			S60.838,28.848,59.458,28.848z"/>
		<path fill="#FFFFFF" d="M13.988,24.343H4.979c-1.381,0-2.5,1.119-2.5,2.5v9.009c0,1.381,1.119,2.5,2.5,2.5h9.009
			c1.381,0,2.5-1.119,2.5-2.5v-9.009C16.488,25.462,15.369,24.343,13.988,24.343z M11.488,33.352H7.479v-4.009h4.009V33.352z"/>
		<path fill="#FFFFFF" d="M34.574,49.973H21.988c-1.381,0-2.5,1.119-2.5,2.5s1.119,2.5,2.5,2.5h12.586c1.381,0,2.5-1.119,2.5-2.5
			S35.955,49.973,34.574,49.973z"/>
		<path fill="#FFFFFF" d="M13.988,45.468H4.979c-1.381,0-2.5,1.119-2.5,2.5v9.009c0,1.381,1.119,2.5,2.5,2.5h9.009
			c1.381,0,2.5-1.119,2.5-2.5v-9.009C16.488,46.587,15.369,45.468,13.988,45.468z M11.488,54.477H7.479v-4.009h4.009V54.477z"/>
	</g>
</g>
</svg>
