<?xml version="1.0" encoding="utf-8"?>
<!-- Generator: Adobe Illustrator 16.0.0, SVG Export Plug-In . SVG Version: 6.00 Build 0)  -->
<!DOCTYPE svg PUBLIC "-//W3C//DTD SVG 1.1//EN" "http://www.w3.org/Graphics/SVG/1.1/DTD/svg11.dtd">
<svg version="1.1" xmlns="http://www.w3.org/2000/svg" xmlns:xlink="http://www.w3.org/1999/xlink" x="0px" y="0px"
	 width="168.625px" height="31.292px" viewBox="0 0 168.625 31.292" enable-background="new 0 0 168.625 31.292"
	 xml:space="preserve">
<g id="圖層_2">
</g>
<g id="圖層_1">
	<g>
		<path id="New-shape" fill="none" stroke="#F7D8D7" d="M0.413,0.429l12.445,12l12.129-12"/>
		<path id="New-shape-Copy" fill="none" stroke="#F7D8D7" d="M24.267,0.429l12.445,12l12.129-12"/>
		<path id="New-shape-Copy-2" fill="none" stroke="#F7D8D7" d="M48.12,0.429l12.445,12l12.129-12"/>
		<path id="New-shape-Copy-3" fill="none" stroke="#F7D8D7" d="M71.974,0.429l12.445,12l12.129-12"/>
		<path id="New-shape-Copy-4" fill="none" stroke="#F7D8D7" d="M95.827,0.429l12.445,12l12.129-12"/>
		<path id="New-shape-Copy-5" fill="none" stroke="#F7D8D7" d="M119.681,0.429l12.445,12l12.129-12"/>
		<path id="New-shape-Copy-6" fill="none" stroke="#F7D8D7" d="M143.534,0.429l12.445,12l12.129-12"/>
		<path id="New-shape_1_" fill="none" stroke="#F7D8D7" d="M0.413,9.429l12.445,12l12.129-12"/>
		<path id="New-shape-Copy_1_" fill="none" stroke="#F7D8D7" d="M24.267,9.429l12.445,12l12.129-12"/>
		<path id="New-shape-Copy-2_1_" fill="none" stroke="#F7D8D7" d="M48.12,9.429l12.445,12l12.129-12"/>
		<path id="New-shape-Copy-3_1_" fill="none" stroke="#F7D8D7" d="M71.974,9.429l12.445,12l12.129-12"/>
		<path id="New-shape-Copy-4_1_" fill="none" stroke="#F7D8D7" d="M95.827,9.429l12.445,12l12.129-12"/>
		<path id="New-shape-Copy-5_1_" fill="none" stroke="#F7D8D7" d="M119.681,9.429l12.445,12l12.129-12"/>
		<path id="New-shape-Copy-6_1_" fill="none" stroke="#F7D8D7" d="M143.534,9.429l12.445,12l12.129-12"/>
		<path id="New-shape_2_" fill="none" stroke="#F7D8D7" d="M0.413,18.429l12.445,12l12.129-12"/>
		<path id="New-shape-Copy_2_" fill="none" stroke="#F7D8D7" d="M24.267,18.429l12.445,12l12.129-12"/>
		<path id="New-shape-Copy-2_2_" fill="none" stroke="#F7D8D7" d="M48.12,18.429l12.445,12l12.129-12"/>
		<path id="New-shape-Copy-3_2_" fill="none" stroke="#F7D8D7" d="M71.974,18.429l12.445,12l12.129-12"/>
		<path id="New-shape-Copy-4_2_" fill="none" stroke="#F7D8D7" d="M95.827,18.429l12.445,12l12.129-12"/>
		<path id="New-shape-Copy-5_2_" fill="none" stroke="#F7D8D7" d="M119.681,18.429l12.445,12l12.129-12"/>
		<path id="New-shape-Copy-6_2_" fill="none" stroke="#F7D8D7" d="M143.534,18.429l12.445,12l12.129-12"/>
	</g>
</g>
</svg>
