<?xml version="1.0" encoding="utf-8"?>
<!-- Generator: Adobe Illustrator 16.0.0, SVG Export Plug-In . SVG Version: 6.00 Build 0)  -->
<!DOCTYPE svg PUBLIC "-//W3C//DTD SVG 1.1//EN" "http://www.w3.org/Graphics/SVG/1.1/DTD/svg11.dtd">
<svg version="1.1" xmlns="http://www.w3.org/2000/svg" xmlns:xlink="http://www.w3.org/1999/xlink" x="0px" y="0px"
	 width="136.063px" height="136.063px" viewBox="0 0 136.063 136.063" enable-background="new 0 0 136.063 136.063"
	 xml:space="preserve">
<g id="圖層_2">
</g>
<g id="圖層_1">
	<g>
		
			<path fill="#FFFFFF" stroke="#323333" stroke-width="2.78" stroke-linecap="round" stroke-linejoin="round" stroke-miterlimit="10" d="
			M92.613,28.558c-4.896,3.977-13.994,6.648-24.415,6.648c-10.359,0-19.417-2.644-24.335-6.583l1.203,23.079l37.182,4.17
			L92.613,28.558z"/>
		<g>
			
				<path fill="none" stroke="#323333" stroke-width="2.78" stroke-linecap="round" stroke-linejoin="round" stroke-miterlimit="10" d="
				M60.53,6.18c0,0,5.908-8.688,11.12-2.78c5.212,5.907-3.822,10.424-3.822,10.424v5.212"/>
			
				<path fill="#FFFFFF" stroke="#323333" stroke-width="2.78" stroke-linecap="round" stroke-linejoin="round" stroke-miterlimit="10" d="
				M28.115,38.458c-2.161-5.347,21.921-8.958,29.032-12.667c2.832-1.479,8.003-6.753,11.051-6.753c3.045,0,8.218,5.275,11.05,6.753
				c7.108,3.708,29.896,8.537,29.031,12.667c-2.083,9.952-30.061-6.911-40.083-6.911C58.176,31.546,31.925,47.884,28.115,38.458z"/>
		</g>
		<g>
			
				<polygon fill="#FFFFFF" stroke="#323333" stroke-width="2.78" stroke-linecap="round" stroke-linejoin="round" stroke-miterlimit="10" points="
				27.385,36.595 2.862,61.269 18.499,80.757 29.619,73.604 			"/>
			
				<polygon fill="#FFFFFF" stroke="#323333" stroke-width="2.78" stroke-linecap="round" stroke-linejoin="round" stroke-miterlimit="10" points="
				109.011,36.595 133.534,61.269 117.896,80.757 106.776,73.604 			"/>
			
				<path fill="#FFFFFF" stroke="#323333" stroke-width="2.78" stroke-linecap="round" stroke-linejoin="round" stroke-miterlimit="10" d="
				M92.553,28.488c-3.629,9.911-13.12,17-24.289,17c-11.171,0-20.66-7.089-24.29-17l-16.59,8.107v48.216v48.215h40.879h40.879
				V84.812V36.595L92.553,28.488z"/>
		</g>
	</g>
</g>
</svg>
