<?xml version="1.0" encoding="utf-8"?>
<!-- Generator: Adobe Illustrator 16.0.0, SVG Export Plug-In . SVG Version: 6.00 Build 0)  -->
<!DOCTYPE svg PUBLIC "-//W3C//DTD SVG 1.1//EN" "http://www.w3.org/Graphics/SVG/1.1/DTD/svg11.dtd">
<svg version="1.1" xmlns="http://www.w3.org/2000/svg" xmlns:xlink="http://www.w3.org/1999/xlink" x="0px" y="0px"
	 width="136.063px" height="136.063px" viewBox="0 0 136.063 136.063" enable-background="new 0 0 136.063 136.063"
	 xml:space="preserve">
<g id="圖層_2">
</g>
<g id="圖層_1">
	<g>
		
			<path fill="#FFFFFF" stroke="#323333" stroke-width="2.858" stroke-linecap="round" stroke-linejoin="round" stroke-miterlimit="10" d="
			M127.334,123.399c0,0-24.298,9.174-57.051,9.174c-32.751,0-61.555-9.174-61.555-9.174S3.261,39.153,68.032,39.153
			C132.801,39.153,127.334,123.399,127.334,123.399z"/>
		
			<path fill="none" stroke="#323333" stroke-width="2.858" stroke-linecap="round" stroke-linejoin="round" stroke-miterlimit="10" d="
			M127.334,111.61c0,0-24.298,9.174-57.051,9.174c-32.751,0-61.555-9.174-61.555-9.174"/>
		<g>
			
				<path fill="#FFFFFF" stroke="#323333" stroke-width="2.858" stroke-linecap="round" stroke-linejoin="round" stroke-miterlimit="10" d="
				M83.01,12.896c-8.239-0.714-14.979,5.716-14.979,5.716s-6.741-6.43-14.979-5.716c0,0-5.617,11.432,0,19.291v8.574
				c0,0,4.494,6.431,14.979,6.788c10.485-0.357,14.979-6.788,14.979-6.788v-8.574C88.627,24.327,83.01,12.896,83.01,12.896z"/>
			<g>
				
					<path fill="#FFFFFF" stroke="#323333" stroke-width="2.858" stroke-linecap="round" stroke-linejoin="round" stroke-miterlimit="10" d="
					M53.063,12.84c0,0-10.896-18.878-20.363-2.981C32.7,9.859,38.595,21.894,53.063,12.84z"/>
				
					<path fill="#FFFFFF" stroke="#323333" stroke-width="2.858" stroke-linecap="round" stroke-linejoin="round" stroke-miterlimit="10" d="
					M83,12.84c0,0,10.896-18.878,20.363-2.981C103.363,9.859,97.469,21.894,83,12.84z"/>
			</g>
		</g>
		
			<line fill="#FFFFFF" stroke="#323333" stroke-width="2.858" stroke-linecap="round" stroke-linejoin="round" stroke-miterlimit="10" x1="68.032" y1="47.548" x2="68.032" y2="63.981"/>
		
			<path fill="#FFFFFF" stroke="#323333" stroke-width="2.858" stroke-linecap="round" stroke-linejoin="round" stroke-miterlimit="10" d="
			M58.208,44.982c0,0-5.589,7.925-7.653,13.283"/>
		
			<path fill="#FFFFFF" stroke="#323333" stroke-width="2.858" stroke-linecap="round" stroke-linejoin="round" stroke-miterlimit="10" d="
			M77.854,44.982c0,0,6.443,6.496,7.653,13.283"/>
	</g>
</g>
</svg>
