<?xml version="1.0" encoding="utf-8"?>
<!-- Generator: Adobe Illustrator 16.0.0, SVG Export Plug-In . SVG Version: 6.00 Build 0)  -->
<!DOCTYPE svg PUBLIC "-//W3C//DTD SVG 1.1//EN" "http://www.w3.org/Graphics/SVG/1.1/DTD/svg11.dtd">
<svg version="1.1" xmlns="http://www.w3.org/2000/svg" xmlns:xlink="http://www.w3.org/1999/xlink" x="0px" y="0px"
	 width="136.063px" height="136.063px" viewBox="0 0 136.063 136.063" enable-background="new 0 0 136.063 136.063"
	 xml:space="preserve">
<g id="圖層_2">
</g>
<g id="圖層_1">
	<g>
		
			<path fill="#FFFFFF" stroke="#323333" stroke-width="2.858" stroke-linecap="round" stroke-linejoin="round" stroke-miterlimit="10" d="
			M45.477,20.605h45.415c-0.349-6.104-1.655-11.767-3.684-16.612H49.162C47.134,8.838,45.827,14.501,45.477,20.605z"/>
		
			<path fill="#FFFFFF" stroke="#323333" stroke-width="2.858" stroke-linecap="round" stroke-linejoin="round" stroke-miterlimit="10" d="
			M68.185,46.327c0,0,3.215,18.219,4.287,25.9c1.072,7.681,0,58.053,0,58.053c20.898,10.181,28.758-4.108,28.758-4.108
			s-7.324-29.651-9.289-38.761c-1.965-9.11-1.071-33.938-1.356-36.439c-0.285-2.5,1.178-4.644,1.178-4.644
			c8.932-14.647,1.25-34.028,1.25-34.028H43.049c0,0-7.681,19.38,1.25,34.028c0,0,1.462,2.144,1.178,4.644
			c-0.285,2.501,0.608,27.33-1.356,36.439c-1.965,9.109-9.288,38.761-9.288,38.761s7.859,14.29,28.758,4.108
			c0,0-1.072-50.372,0-58.053c1.072-7.681,4.287-25.9,4.287-25.9H68.185z"/>
		
			<polyline fill="#FFFFFF" stroke="#323333" stroke-width="2.858" stroke-linecap="round" stroke-linejoin="round" stroke-miterlimit="10" points="
			63.055,41.862 67.877,46.327 73.236,41.862 		"/>
	</g>
</g>
</svg>
