<?xml version="1.0" encoding="utf-8"?>
<!-- Generator: Adobe Illustrator 16.0.0, SVG Export Plug-In . SVG Version: 6.00 Build 0)  -->
<!DOCTYPE svg PUBLIC "-//W3C//DTD SVG 1.1//EN" "http://www.w3.org/Graphics/SVG/1.1/DTD/svg11.dtd">
<svg version="1.1" xmlns="http://www.w3.org/2000/svg" xmlns:xlink="http://www.w3.org/1999/xlink" x="0px" y="0px"
	 width="136.063px" height="136.063px" viewBox="0 0 136.063 136.063" enable-background="new 0 0 136.063 136.063"
	 xml:space="preserve">
<g id="圖層_2">
</g>
<g id="圖層_1">
	<g>
		
			<path fill="#FFFFFF" stroke="#323333" stroke-width="2.6039" stroke-linecap="round" stroke-linejoin="round" stroke-miterlimit="10" d="
			M61.271,115.598c-2.63-2.082-25.977-19.317-35.774-30.202C15.202,73.953,10.349,61.721,12.824,49.23
			c2.616-13.146,14.781-21.67,29.995-20.554c10.136,0.774,17.024,8.267,20.776,13.834c3.773-5.542,10.673-13.06,20.75-13.834
			c15.322-1.163,27.375,7.398,29.996,20.546c2.488,12.487-2.367,24.718-12.68,36.173C92.2,95.931,70.26,112.138,65.96,115.551
			l-2.282,1.812l-2.382-1.742"/>
		
			<path fill="none" stroke="#323333" stroke-width="2.6039" stroke-linecap="round" stroke-linejoin="round" stroke-miterlimit="10" d="
			M77.68,54.11c0,0,1.302,4.557,7.16,7.16"/>
		
			<line fill="none" stroke="#323333" stroke-width="2.6039" stroke-linecap="round" stroke-linejoin="round" stroke-miterlimit="10" x1="95.907" y1="43.043" x2="81.26" y2="57.69"/>
		
			<line fill="none" stroke="#323333" stroke-width="2.6039" stroke-linecap="round" stroke-linejoin="round" stroke-miterlimit="10" x1="41.207" y1="100.238" x2="32.762" y2="108.682"/>
		
			<polygon fill="#FFFFFF" stroke="#323333" stroke-width="2.6039" stroke-linecap="round" stroke-linejoin="round" stroke-miterlimit="10" points="
			112.191,13.381 93.55,32.023 95.774,43.608 107.281,43.76 124.926,26.115 113.266,24.274 		"/>
		
			<polygon fill="#FFFFFF" stroke="#323333" stroke-width="2.6039" stroke-linecap="round" stroke-linejoin="round" stroke-miterlimit="10" points="
			41.723,112.075 16.636,125.328 29.887,100.238 32.833,109.132 		"/>
	</g>
</g>
</svg>
